<?xml version="1.0" standalone="no"?>
<!DOCTYPE svg PUBLIC "-//W3C//DTD SVG 20010904//EN"
 "http://www.w3.org/TR/2001/REC-SVG-20010904/DTD/svg10.dtd">
<svg version="1.0" xmlns="http://www.w3.org/2000/svg"
 width="512.000000pt" height="512.000000pt" viewBox="0 0 512.000000 512.000000"
 preserveAspectRatio="xMidYMid meet">
<metadata>
Created by potrace 1.16, written by Peter Selinger 2001-2019
</metadata>
<g transform="translate(0.000000,512.000000) scale(0.100000,-0.100000)"
fill="#000000" stroke="none">
<path d="M2349 4754 c-25 -7 -93 -46 -150 -86 -88 -62 -109 -82 -133 -127 -42
-78 -46 -169 -13 -272 17 -55 21 -82 14 -94 -5 -10 -7 -42 -4 -72 l6 -54 -222
4 c-140 3 -230 1 -244 -6 -14 -6 -27 -25 -33 -46 -6 -21 -10 -175 -10 -359 l0
-324 -29 -29 c-19 -18 -47 -75 -79 -156 -53 -137 -67 -191 -76 -292 -4 -37
-14 -77 -26 -96 -12 -20 -20 -50 -20 -77 0 -27 -11 -69 -26 -104 -14 -33 -42
-122 -61 -199 -19 -77 -51 -180 -71 -230 -38 -98 -39 -109 -24 -265 13 -126
33 -207 71 -276 27 -50 28 -54 16 -112 -19 -89 -6 -134 75 -272 80 -135 92
-150 123 -150 23 0 39 -22 82 -110 34 -69 93 -394 120 -669 14 -135 25 -253
25 -263 0 -10 7 -18 15 -18 21 0 20 31 -10 331 -27 274 -39 357 -61 433 -32
112 -13 219 66 376 21 42 41 93 45 113 14 71 59 84 185 53 122 -30 110 -33
110 24 0 44 2 50 21 50 19 0 21 -5 17 -54 l-3 -54 105 -16 c58 -9 133 -19 168
-22 59 -6 63 -8 57 -28 -4 -11 -9 -128 -12 -259 l-6 -239 -46 6 -46 5 40 -19
c65 -32 71 -28 79 41 3 34 6 158 6 275 l0 214 55 0 55 0 0 -275 0 -276 -25
-24 c-13 -14 -30 -25 -36 -25 -7 0 -10 -3 -7 -6 8 -7 41 10 62 32 14 13 16 54
16 295 l0 279 38 0 c21 0 42 4 48 10 5 5 58 17 117 27 l107 17 0 52 c0 37 4
54 15 58 12 4 15 -5 15 -54 0 -33 4 -60 10 -60 5 0 50 15 99 33 l89 34 35 -61
c43 -74 82 -188 97 -282 14 -91 -6 -196 -61 -314 -34 -72 -36 -81 -16 -62 l23
22 -3 -68 c-2 -37 -13 -181 -24 -320 -12 -139 -19 -256 -16 -259 14 -13 25 12
31 74 3 37 17 188 31 335 28 291 59 459 100 535 42 78 74 118 103 125 20 6 42
31 80 93 29 46 69 103 88 126 44 53 51 82 31 135 -14 40 -14 43 3 59 27 24 75
121 101 203 20 64 22 76 10 105 -18 43 -32 163 -25 210 l6 37 52 0 c94 0 86
-97 86 1013 0 963 0 976 -20 990 -16 11 -96 13 -475 9 l-455 -5 6 55 c5 47 3
60 -15 85 l-22 29 31 104 c45 157 30 241 -49 256 -25 5 -29 12 -34 46 -7 50
-45 92 -112 124 -42 20 -65 24 -145 23 -52 0 -116 -7 -141 -15z m281 -66 c23
-14 66 -95 56 -105 -7 -7 -6 -8 -26 32 -24 48 -100 80 -183 78 -80 -2 -83 3
-6 15 59 9 126 0 159 -20z m-307 -85 c61 4 73 3 47 -4 -51 -13 -143 -14 -168
0 -34 18 -26 31 9 14 24 -12 50 -14 112 -10z m216 -50 c13 -8 28 -28 34 -44
13 -32 22 -34 80 -17 38 11 41 11 63 -15 34 -40 45 -91 38 -180 -7 -73 -8 -77
-28 -70 -29 11 -158 4 -173 -9 -13 -10 -31 -9 -138 11 -86 17 -134 13 -192
-15 -30 -14 -57 -23 -61 -20 -3 3 0 6 6 6 7 0 21 9 32 20 22 22 27 99 11 157
-8 28 -7 32 14 37 13 3 38 18 56 33 31 27 33 27 160 24 105 -2 129 0 129 11 0
21 -37 57 -66 64 -54 14 -157 -2 -234 -36 -88 -39 -169 -50 -189 -26 -12 14
-10 15 18 5 41 -14 81 -6 161 33 117 57 222 69 279 31z m265 -45 c15 -13 29
-39 32 -58 l7 -35 -24 35 c-13 19 -39 42 -56 50 -18 8 -33 18 -33 23 0 16 50
6 74 -15z m-439 -318 c4 -6 -5 -10 -19 -10 -19 0 -26 -5 -26 -18 0 -15 8 -19
41 -20 39 -2 41 -1 37 23 -5 26 1 29 40 19 19 -6 22 -11 17 -33 -14 -57 -31
-71 -88 -71 -64 0 -83 13 -90 62 -4 29 -2 40 11 48 22 12 69 13 77 0z m340 0
c9 0 15 -14 17 -37 l4 -38 13 33 c18 44 32 41 19 -5 -16 -60 -23 -64 -102 -61
l-71 3 -15 43 c-13 38 -13 44 0 52 8 5 24 9 35 9 17 -1 17 -2 3 -6 -20 -5 -20
-5 -12 -27 8 -21 81 -23 81 -1 0 8 -4 12 -8 9 -4 -2 -7 5 -6 16 1 13 6 19 15
15 7 -3 20 -5 27 -5z m-553 -41 c13 -18 21 -49 25 -103 6 -72 5 -78 -13 -74
-25 4 -74 87 -81 137 -9 69 30 93 69 40z m98 -19 c17 -63 31 -71 119 -68 l76
3 20 42 c14 30 26 42 42 43 18 0 25 -12 47 -75 l25 -76 -27 -10 c-15 -6 -40
-8 -57 -5 -16 4 -36 7 -42 8 -7 1 -13 6 -13 12 0 6 -4 6 -11 -1 -15 -15 -3
-34 16 -26 8 3 15 1 15 -4 0 -5 -21 -15 -47 -23 -26 -7 -58 -24 -71 -37 -29
-29 -33 -29 -65 5 -51 53 -97 223 -66 243 23 14 28 11 39 -31z m569 -3 c-1
-18 -5 -45 -9 -62 -5 -21 -7 -11 -6 36 1 37 4 65 9 62 4 -2 6 -19 6 -36z m-43
-52 c-7 -69 -49 -180 -71 -189 -8 -3 -43 14 -78 38 -52 35 -61 45 -48 53 13 8
13 16 4 45 l-10 35 79 -1 c73 -1 82 1 99 23 10 13 19 32 19 42 0 10 3 19 6 19
4 0 4 -29 0 -65z m-686 -50 c0 -21 59 -85 79 -85 15 0 20 -16 30 -87 22 -161
26 -142 -44 -216 -34 -37 -65 -67 -68 -67 -4 0 -57 -28 -119 -62 -62 -34 -175
-87 -250 -119 l-138 -57 0 336 c0 298 2 337 17 354 15 16 36 18 255 18 202 0
238 -2 238 -15z m1670 -5 c7 -13 9 -323 8 -979 -3 -947 -3 -960 -23 -975 -11
-9 -37 -16 -57 -16 -35 0 -38 2 -38 28 0 34 -94 484 -120 572 -10 36 -31 124
-45 195 -41 203 -99 360 -153 408 -9 8 -53 31 -98 50 -166 70 -270 144 -399
287 -28 30 -65 67 -83 83 -39 33 -43 82 -12 132 11 18 23 54 26 81 4 27 18 73
32 102 l26 52 463 0 c449 0 463 -1 473 -20z m-1171 -141 c35 -12 38 -24 15
-57 -13 -19 -63 -52 -79 -52 -15 0 -2 40 15 45 38 12 20 25 -35 25 -59 0 -60
-1 -45 -31 9 -16 7 -19 -8 -19 -44 0 -91 67 -65 93 11 11 167 8 202 -4z m-193
-230 c100 -48 195 -31 264 47 l30 35 0 -33 c0 -28 -12 -44 -81 -111 -45 -43
-90 -82 -101 -88 -17 -9 -18 -8 -9 10 6 11 10 35 10 53 -1 26 -3 28 -6 8 -7
-41 -25 -80 -37 -80 -6 0 -54 38 -107 84 -96 84 -119 118 -119 173 0 23 4 22
55 -25 30 -27 75 -60 101 -73z m340 -24 c17 -42 8 -114 -32 -251 -14 -49 -28
-98 -30 -108 -2 -11 -12 -63 -23 -115 -32 -153 -50 -296 -55 -436 l-5 -130 14
135 c24 232 74 482 136 675 20 64 32 123 33 163 l1 63 47 -53 c54 -60 88 -122
88 -159 0 -22 -8 -28 -55 -43 -30 -9 -57 -21 -60 -26 -6 -9 24 -41 63 -67 12
-9 22 -19 22 -23 0 -4 -19 -39 -42 -76 -60 -100 -134 -259 -173 -377 -36 -107
-45 -166 -70 -469 -18 -208 -22 -695 -6 -743 6 -21 10 54 10 255 2 375 28 699
71 864 39 148 117 327 217 498 l28 48 -44 38 -44 38 61 23 c34 12 62 23 62 24
0 1 -4 17 -9 35 -5 17 -8 32 -7 32 2 0 34 -21 72 -46 62 -42 182 -105 273
-143 66 -27 123 -161 176 -411 14 -69 32 -151 41 -182 29 -115 124 -554 124
-576 0 -13 -7 -37 -16 -54 -13 -26 -14 -37 -4 -74 7 -24 10 -60 7 -79 -4 -26
0 -45 15 -71 18 -31 19 -40 9 -80 -14 -56 -66 -172 -87 -195 -9 -10 -22 -15
-30 -12 -9 3 -14 -2 -14 -15 0 -28 -24 -34 -73 -18 -23 8 -58 17 -77 20 -32 5
-30 4 17 -20 29 -14 70 -28 90 -31 48 -7 60 -17 68 -55 6 -25 2 -35 -17 -53
-14 -13 -42 -53 -64 -90 l-39 -67 -25 31 c-37 43 -131 96 -198 111 l-59 14 18
40 c10 23 19 49 19 58 0 9 7 23 15 31 20 20 89 6 176 -36 63 -30 67 -31 46 -9
-28 30 -81 58 -141 73 -25 6 -46 14 -46 17 0 3 7 14 17 24 12 13 13 18 3 18
-10 0 -12 21 -6 103 8 122 17 139 106 184 34 17 67 37 74 43 11 11 -76 -20
-116 -41 -17 -9 -19 -8 -13 10 3 12 -1 30 -10 45 -16 24 -16 26 45 91 34 37
60 69 57 72 -9 8 -50 -17 -90 -55 -35 -35 -38 -35 -55 -18 -16 16 -16 18 3 32
17 13 93 51 185 93 21 10 16 10 -30 6 -52 -6 -121 -37 -162 -73 -16 -14 -18
-13 -18 1 0 9 15 27 33 39 46 31 163 138 151 138 -5 0 -48 -29 -96 -64 l-86
-64 -7 26 c-4 15 -6 60 -6 102 1 71 8 124 46 319 9 46 14 85 12 87 -2 3 -15
-31 -27 -76 -13 -44 -25 -78 -27 -76 -9 9 22 168 44 225 29 79 69 204 77 246
8 45 -43 -64 -75 -160 l-27 -80 -1 54 c-1 30 -3 52 -6 50 -2 -3 -32 -144 -65
-315 -68 -343 -86 -413 -160 -593 -27 -69 -48 -127 -45 -129 6 -6 84 161 116
248 28 77 36 57 20 -49 -9 -59 -8 -83 13 -183 29 -138 41 -238 32 -266 -4 -12
-22 -30 -40 -42 -70 -42 -350 -84 -531 -78 l-100 3 64 68 63 69 -6 181 c-6
156 -21 831 -28 1222 l-2 120 -6 -95 c-4 -57 -5 -17 -3 99 3 182 5 196 27 233
l23 39 37 -51 c21 -29 40 -50 42 -47 6 5 -79 153 -104 180 -10 11 -23 15 -36
11 -12 -3 29 43 89 103 61 60 111 110 113 111 2 1 10 -14 18 -33z m-390 -72
c90 -82 105 -99 87 -101 -23 -3 -91 -74 -121 -124 -9 -16 -19 -28 -23 -28 -9
0 -43 81 -63 149 -16 54 -22 182 -9 194 12 13 19 8 129 -90z m-132 -183 c14
-41 23 -61 21 -45 -5 30 -5 30 17 -7 12 -21 28 -38 34 -38 7 0 25 16 40 36
l28 36 22 -45 23 -44 -19 -62 c-29 -91 -40 -243 -41 -546 l0 -270 -19 85 c-47
217 -119 428 -216 628 -35 72 -64 136 -64 141 0 5 23 31 50 57 28 26 50 53 50
60 0 7 -16 18 -35 25 -19 7 -35 19 -35 26 0 26 44 130 74 173 l31 45 6 -90 c4
-57 16 -118 33 -165z m-164 103 c-18 -32 -41 -68 -52 -80 -22 -24 -21 -25 55
-39 20 -3 37 -9 37 -13 0 -4 -22 -29 -50 -56 -27 -27 -50 -53 -50 -58 0 -4 11
-23 24 -40 64 -84 177 -354 241 -573 37 -128 67 -286 75 -399 l7 -100 2 120
c1 66 6 138 10 160 17 80 0 -380 -20 -525 -10 -80 -24 -189 -30 -243 l-10 -98
28 -36 c15 -20 36 -46 46 -59 l19 -24 -145 0 c-179 0 -289 18 -421 71 -149 58
-142 49 -128 171 7 57 18 126 26 153 l13 50 16 -30 17 -30 -6 30 c-3 17 -11
48 -17 70 -6 22 -9 83 -7 135 12 306 -10 559 -81 915 -44 221 -58 279 -65 272
-2 -2 9 -71 25 -153 27 -138 62 -374 60 -412 0 -10 -12 14 -26 51 -14 37 -27
66 -29 64 -2 -2 8 -55 23 -118 22 -91 28 -138 28 -234 0 -110 -3 -125 -27
-174 l-26 -53 -7 48 c-4 27 -13 78 -20 114 l-13 65 -1 -70 c0 -38 6 -121 14
-184 9 -63 13 -116 11 -119 -3 -2 -27 9 -53 26 -70 45 -116 62 -168 62 -56 0
-147 -42 -172 -79 l-17 -26 25 18 c13 10 48 29 77 43 68 33 108 28 214 -28 97
-52 95 -63 -3 -14 -60 30 -82 36 -136 36 -80 0 -74 -16 9 -25 68 -8 129 -27
166 -51 38 -25 15 -33 -38 -13 -59 22 -65 17 -12 -10 38 -19 89 -67 81 -76 -3
-2 -25 3 -49 11 -52 18 -126 14 -185 -10 -42 -18 -43 -32 -1 -16 39 15 161 12
200 -4 30 -12 36 -22 56 -87 13 -41 27 -114 31 -164 3 -49 11 -108 17 -130 11
-42 9 -62 -3 -25 -6 19 -12 22 -45 17 -42 -5 -93 -28 -130 -57 -22 -18 -17
-17 43 5 37 14 80 25 96 25 27 0 31 -5 50 -61 22 -66 21 -79 -8 -79 -59 0
-241 -126 -241 -167 0 -10 -14 6 -30 36 -16 30 -40 68 -53 85 -40 52 -57 93
-57 136 0 49 19 132 33 141 5 4 0 10 -11 13 -41 13 -103 199 -101 302 1 32 -2
82 -6 109 -6 43 -3 62 24 130 17 44 47 141 65 215 18 75 48 171 65 214 17 42
31 96 31 118 0 24 9 55 21 74 14 23 23 62 29 121 11 105 19 134 77 281 54 134
74 155 207 207 87 35 351 167 370 186 22 21 16 -4 -14 -58z m467 -325 c-2 -13
-4 -5 -4 17 -1 22 1 32 4 23 2 -10 2 -28 0 -40z m-150 -590 c-2 -18 -4 -6 -4
27 0 33 2 48 4 33 2 -15 2 -42 0 -60z m-666 -428 c-6 -41 -11 -118 -12 -170 0
-52 -7 -137 -16 -188 l-16 -93 -28 86 c-16 48 -28 96 -27 108 0 12 -4 35 -11
50 -10 26 -8 31 25 62 32 30 35 38 29 67 -4 18 -11 37 -16 43 -16 16 -10 35
34 108 l42 72 3 -35 c2 -19 -1 -69 -7 -110z m1464 -49 c1 -57 4 -66 31 -90 19
-18 28 -34 26 -49 -2 -13 1 -37 7 -54 9 -25 8 -36 -8 -62 -15 -24 -21 -59 -27
-164 -6 -121 -9 -136 -29 -155 -13 -12 -30 -47 -39 -77 -8 -30 -22 -64 -30
-75 -15 -19 -16 -16 -13 40 2 49 6 63 26 79 46 38 53 74 35 189 -9 56 -24 136
-34 178 -13 56 -16 89 -9 127 4 29 11 95 15 147 l7 96 21 -33 c15 -24 21 -51
21 -97z m-1451 -596 c19 -14 19 -16 3 -50 -23 -49 -37 -44 -37 15 0 53 4 58
34 35z m146 -64 c36 -11 77 -22 93 -25 24 -6 27 -11 27 -45 l0 -39 -71 20
c-127 36 -144 43 -147 67 -5 31 5 54 21 47 6 -2 41 -14 77 -25z m1193 -11 c-7
-27 -18 -34 -100 -64 l-73 -26 0 24 c0 14 -3 31 -6 39 -4 11 12 18 68 30 105
21 117 21 111 -3z m-475 -87 l-3 -68 -100 0 -100 0 -3 54 c-5 82 -6 81 108 81
l101 0 -3 -67z m-360 47 l72 0 0 -53 0 -53 -72 7 c-136 15 -138 15 -132 52 10
55 13 60 37 53 12 -3 55 -6 95 -6z m992 -81 c52 -23 86 -53 106 -90 15 -31 8
-66 -27 -129 l-22 -40 -17 38 c-10 21 -32 55 -50 76 -26 29 -90 144 -90 162 0
11 60 1 100 -17z m-1528 -34 c-3 -42 -25 -85 -43 -85 -26 0 -102 -65 -119
-101 l-17 -39 -31 59 c-18 32 -32 66 -32 74 0 38 167 140 220 135 23 -3 25 -7
22 -43z m1669 -49 c23 -30 28 -71 10 -89 -9 -9 -11 -7 -10 8 5 45 -3 66 -33
102 -23 25 -26 32 -11 22 12 -9 32 -28 44 -43z m-1927 -105 c-6 -6 -24 19 -24
34 1 6 7 1 15 -9 8 -11 12 -22 9 -25z m190 -2 c-9 -19 -27 -63 -39 -99 l-22
-65 -12 42 c-9 34 -9 49 3 76 12 30 75 91 84 82 2 -2 -4 -18 -14 -36z m1606
-32 c14 -32 17 -51 11 -73 l-8 -29 -6 25 c-3 14 -8 39 -12 55 -3 17 -8 38 -11
48 -10 34 7 16 26 -26z"/>
<path d="M2100 4139 c0 -11 5 -17 10 -14 15 9 24 -23 10 -39 -9 -12 -8 -20 5
-39 9 -14 23 -28 32 -31 14 -6 14 -4 -1 18 -10 17 -14 35 -10 56 5 22 2 36
-11 50 -23 26 -35 25 -35 -1z"/>
<path d="M2416 3869 c3 -5 44 -9 91 -9 48 0 84 2 82 4 -9 8 -178 13 -173 5z"/>
<path d="M3290 3178 c0 -29 -5 -84 -10 -123 -5 -38 -11 -90 -14 -115 -5 -45
-5 -44 10 10 15 57 32 280 20 280 -3 0 -6 -24 -6 -52z"/>
<path d="M2808 2923 c-20 -2 -42 -11 -49 -19 -11 -14 -8 -15 32 -10 24 3 115
7 201 9 129 2 155 4 141 15 -16 11 -228 15 -325 5z"/>
<path d="M2760 2820 c-10 -7 50 -8 183 -3 108 3 197 3 197 0 0 -3 -12 -47 -26
-96 -14 -50 -24 -96 -22 -102 3 -9 31 81 59 191 3 13 -23 15 -186 17 -114 2
-196 -1 -205 -7z"/>
<path d="M2680 2345 c0 -38 70 -54 155 -35 32 7 25 8 -32 4 -68 -5 -74 -3 -98
20 -16 16 -25 20 -25 11z"/>
<path d="M3407 1999 c-51 -12 -139 -58 -132 -69 6 -10 11 -9 104 27 49 19 78
24 118 21 29 -3 53 -3 53 -1 0 8 -70 33 -87 32 -10 -1 -35 -5 -56 -10z"/>
<path d="M3313 1543 c-27 -10 -11 -23 30 -23 23 0 57 -4 75 -10 28 -8 32 -7
22 5 -9 10 -102 39 -113 34 -1 0 -8 -3 -14 -6z"/>
<path d="M2890 1514 l-55 -13 68 4 c69 4 133 25 72 24 -16 -1 -55 -7 -85 -15z"/>
<path d="M2283 3148 c3 -13 11 -54 18 -93 13 -82 32 -114 23 -40 -7 59 -32
155 -40 155 -4 0 -4 -10 -1 -22z"/>
<path d="M2277 2054 c-13 -14 -7 -52 10 -58 25 -10 51 20 37 42 -12 19 -36 27
-47 16z"/>
<path d="M1902 1766 c-91 -141 -105 -171 -87 -186 17 -14 255 -28 243 -15 -5
5 -47 14 -94 21 -48 7 -91 17 -97 23 -7 7 4 39 33 98 52 108 72 153 66 153 -2
0 -31 -42 -64 -94z"/>
<path d="M1505 1561 c22 -4 51 -11 65 -15 20 -7 23 -6 13 4 -6 7 -36 14 -65
16 -49 3 -50 2 -13 -5z"/>
<path d="M1456 1514 c-55 -13 -140 -53 -132 -61 2 -2 21 3 41 11 59 25 62 19
15 -29 -24 -25 -40 -45 -36 -45 4 0 51 32 103 70 101 74 101 76 9 54z"/>
<path d="M2390 1325 l0 -55 85 0 85 0 0 55 0 55 -85 0 -85 0 0 -55z"/>
<path d="M2885 1234 c-91 -45 -83 -52 10 -9 43 20 100 55 85 54 -3 -1 -45 -21
-95 -45z"/>
<path d="M1840 1236 c0 -10 125 -44 180 -49 47 -5 43 -3 -35 17 -49 12 -102
26 -117 29 -16 4 -28 5 -28 3z"/>
<path d="M2941 1138 c0 -48 7 -98 15 -118 l14 -35 -5 34 c-3 18 -5 71 -5 117
0 49 -4 84 -10 84 -6 0 -10 -34 -9 -82z"/>
<path d="M1853 1069 c-13 -35 -21 -64 -19 -66 6 -7 47 98 44 113 -2 8 -13 -13
-25 -47z"/>
<path d="M2110 715 c0 -3 44 -34 97 -69 106 -72 106 -69 4 -92 l-56 -12 106
-1 106 -1 7 -46 c6 -48 0 -105 -39 -335 -29 -173 -28 -159 -11 -159 16 0 21
22 57 228 l24 134 30 -179 c25 -144 34 -179 48 -181 13 -3 16 2 12 25 -3 15
-14 96 -26 178 -11 83 -27 186 -35 230 -8 44 -14 82 -14 85 0 3 46 4 102 2 92
-3 110 -1 168 22 36 15 52 24 35 21 -73 -13 -244 -17 -292 -7 -29 7 -82 31
-120 55 -65 42 -203 111 -203 102z"/>
<path d="M1996 378 c-11 -153 -15 -294 -7 -333 5 -26 9 37 13 180 3 121 5 221
3 223 -2 2 -6 -29 -9 -70z"/>
<path d="M2854 230 c0 -118 2 -167 3 -108 2 60 2 156 0 215 -1 60 -3 11 -3
-107z"/>
</g>
</svg>